<svg viewBox="0 0 129 144" fill="none" xmlns="http://www.w3.org/2000/svg">
<path d="M0.00012207 37.4792V41.7651L64.5001 78.8226L122.397 45.7466V59.2193L64.5001 92.5996L3.29845 57.0763L0.00012207 58.9149V84.6365L64.5001 121.688L122.397 88.6181V101.786L64.5001 135.16L3.29845 99.6434L0.00012207 101.482V106.072L64.5001 143.124L129 106.072V80.3506L126 78.512L64.5001 114.035L6.90106 80.3506V67.1824L64.5001 100.252L129 63.2008V37.7898L126 35.9512L64.5001 71.4683L9.9012 39.9327L64.5001 8.39098L109.8 34.417L113.701 31.9696V28.603L64.5001 0.123535L0.00012207 37.4792Z" fill="#EF3E2B"/>
</svg>
